<svg width="33" height="33" viewBox="0 0 33 33" fill="none" xmlns="http://www.w3.org/2000/svg">
<path d="M16.5 0.5C7.66 0.5 0.5 7.66 0.5 16.5C0.5 25.34 7.66 32.5 16.5 32.5C25.34 32.5 32.5 25.34 32.5 16.5C32.5 7.66 25.34 0.5 16.5 0.5ZM15.3 3.116V29.884C11.716 28.692 9.3 22.308 9.3 16.5C9.3 10.692 11.708 4.308 15.3 3.116ZM17.7 29.884V3.116C21.292 4.308 23.7 10.692 23.7 16.5C23.7 22.308 21.284 28.692 17.7 29.884ZM2.9 16.5C2.9 11.276 5.86 6.74 10.188 4.46C8.18 7.396 6.9 11.692 6.9 16.5C6.9 21.308 8.18 25.604 10.188 28.54C5.86 26.26 2.9 21.724 2.9 16.5ZM22.812 28.54C24.82 25.604 26.1 21.308 26.1 16.5C26.1 11.692 24.82 7.396 22.812 4.46C27.14 6.74 30.1 11.276 30.1 16.5C30.1 21.724 27.14 26.26 22.812 28.54Z" fill="white"/>
</svg>
